<svg xmlns="http://www.w3.org/2000/svg" viewBox="0 0 36.39 41.37"><defs><style>.cls-1{fill:#fff;}</style></defs><title>ioFog-logomark-white</title><g id="Layer_2" data-name="Layer 2"><g id="Layer_1-2" data-name="Layer 1"><path class="cls-1" d="M18.19,41.37a2.06,2.06,0,0,1-1-.28L1,31.79A2.09,2.09,0,0,1,0,30V11.38a2.09,2.09,0,0,1,1-1.8L17.15.28a2.07,2.07,0,1,1,2.08,3.59L4.15,12.58V28.79l14,8.11,15.08-8.71a2.08,2.08,0,1,1,2.08,3.6l-16.12,9.3A2,2,0,0,1,18.19,41.37Z"/><path class="cls-1" d="M18.19,32.16a2.08,2.08,0,0,1-1-3.88L33.27,19a2.07,2.07,0,1,1,2.08,3.59L19.23,31.88A2.06,2.06,0,0,1,18.19,32.16Z"/><path class="cls-1" d="M25.31,19.57a2.07,2.07,0,0,1-1-3.87l9-5.2a2.08,2.08,0,1,1,2.08,3.6l-9,5.19A2.06,2.06,0,0,1,25.31,19.57Z"/><path class="cls-1" d="M18.19,15.21a2.08,2.08,0,0,1-1-3.88L33.27,2a2.07,2.07,0,1,1,2.08,3.59L19.23,14.93A2.06,2.06,0,0,1,18.19,15.21Z"/></g></g></svg>