<svg xmlns="http://www.w3.org/2000/svg" viewBox="0 0 35 40"><defs><style>.cls-1{fill:#fff;}</style></defs><title>edgeworx-logomark-white</title><g id="Layer_2" data-name="Layer 2"><g id="Layer_1-2" data-name="Layer 1"><path class="cls-1" d="M33.9,9.72a2.34,2.34,0,0,0-2.37-.06L7.71,22.73a1.52,1.52,0,0,1-2-.58,1.49,1.49,0,0,1,.59-2l20.1-11a2.29,2.29,0,0,0,.1-4,2.34,2.34,0,0,0-2.36-.06L8.36,13.69a1.51,1.51,0,0,1-2-.58,1.48,1.48,0,0,1,.59-2L18.66,4.64A2.46,2.46,0,0,0,18.77.38h0A2.53,2.53,0,0,0,16.23.31L.79,8.78A1.49,1.49,0,0,0,0,10.08L0,28.32a2.31,2.31,0,0,0,1.1,2,2.34,2.34,0,0,0,2.37.06L28.35,16.69a1.51,1.51,0,0,1,2,.58,1.48,1.48,0,0,1-.59,2L8.65,30.9a2.29,2.29,0,0,0-.1,4,2.34,2.34,0,0,0,2.36.06l16.78-9.21a1.52,1.52,0,0,1,2,.58,1.47,1.47,0,0,1-.59,2l-12.8,7a2.46,2.46,0,0,0-.11,4.26,2.51,2.51,0,0,0,2.54.07l15.44-8.47a1.49,1.49,0,0,0,.77-1.3l0-18.24A2.29,2.29,0,0,0,33.9,9.72Z"/></g></g></svg>